/* XPM */
static char * pacman4console_xpm[] = {
"32 32 49 1",
" 	c None",
".	c #000000",
"+	c #191919",
"@	c #808080",
"#	c #C3C3C3",
"$	c #E9E9E9",
"%	c #F9F9F9",
"&	c #EAEAEA",
"*	c #D3D3D3",
"=	c #9F9F9F",
"-	c #575757",
";	c #6C6C6C",
">	c #F7F7F7",
",	c #FFFFFF",
"'	c #787878",
")	c #EDEDED",
"!	c #6E6E6E",
"~	c #1E1E1E",
"{	c #040404",
"]	c #0D0D0D",
"^	c #323232",
"/	c #707070",
"(	c #CBCBCB",
"_	c #2A2A2A",
":	c #FBFBFB",
"<	c #F1F1F1",
"[	c #292929",
"}	c #979797",
"|	c #7C7C7C",
"1	c #D9D9D9",
"2	c #F4F4F4",
"3	c #070707",
"4	c #7B7B7B",
"5	c #2B2B2B",
"6	c #FCFCFC",
"7	c #ECECEC",
"8	c #6D6D6D",
"9	c #1C1C1C",
"0	c #171717",
"a	c #333333",
"b	c #CACACA",
"c	c #F8F8F8",
"d	c #1A1A1A",
"e	c #818181",
"f	c #C4C4C4",
"g	c #EBEBEB",
"h	c #FAFAFA",
"i	c #D4D4D4",
"j	c #A0A0A0",
"        ................        ",
"      ....................      ",
"     ......................     ",
"    ........................    ",
"   ..........................   ",
"  ............................  ",
" .............................. ",
" .............................. ",
".......+@#$%&*=-................",
"......;>,,,,,,,,................",
".....',,)!~{]^/(................",
"...._:,<[.......................",
"....},,|........................",
"....1,,[........................",
"....2,,3........................",
"....2,,3........................",
"....1,,[........................",
"....},,4........................",
"....56,<[..........,,,....,,,...",
".....4,,789{0a8b...,,,....,,,...",
"....../c,,,,,,,,...,,,....,,,...",
".......defghgij-...,,,....,,,...",
"................................",
"................................",
" .............................. ",
" .............................. ",
"  ............................  ",
"   ..........................   ",
"    ........................    ",
"     ......................     ",
"      ....................      ",
"        ................        "};
